<mxfile host="app.diagrams.net" agent="Mozilla/5.0 (X11; Linux x86_64; rv:142.0) Gecko/20100101 Firefox/142.0" version="28.1.2">
  <diagram name="Seite-1" id="T1q-WMdjjpSWibJzd8xD">
    <mxGraphModel dx="1210" dy="1927" grid="1" gridSize="10" guides="1" tooltips="1" connect="1" arrows="1" fold="1" page="1" pageScale="1" pageWidth="827" pageHeight="1169" math="0" shadow="0">
      <root>
        <mxCell id="0" />
        <mxCell id="1" parent="0" />
        <mxCell id="E2zEyNJni2xc371JtmK6-21" style="edgeStyle=orthogonalEdgeStyle;rounded=0;orthogonalLoop=1;jettySize=auto;html=1;entryX=0.827;entryY=0.026;entryDx=0;entryDy=0;entryPerimeter=0;" edge="1" parent="1" source="wYL23PpMjLghD0bWI5in-1" target="wYL23PpMjLghD0bWI5in-4">
          <mxGeometry relative="1" as="geometry">
            <mxPoint x="420" y="210.00000000000023" as="targetPoint" />
            <Array as="points">
              <mxPoint x="458" y="200" />
            </Array>
          </mxGeometry>
        </mxCell>
        <mxCell id="wYL23PpMjLghD0bWI5in-1" value="app" style="rounded=1;whiteSpace=wrap;html=1;" parent="1" vertex="1">
          <mxGeometry x="400" y="-40" width="160" height="220" as="geometry" />
        </mxCell>
        <mxCell id="wYL23PpMjLghD0bWI5in-7" style="edgeStyle=orthogonalEdgeStyle;rounded=0;orthogonalLoop=1;jettySize=auto;html=1;entryX=0.5;entryY=0;entryDx=0;entryDy=0;startArrow=none;startFill=0;endArrow=classic;endFill=1;" parent="1" source="wYL23PpMjLghD0bWI5in-4" target="wYL23PpMjLghD0bWI5in-6" edge="1">
          <mxGeometry relative="1" as="geometry" />
        </mxCell>
        <mxCell id="wYL23PpMjLghD0bWI5in-4" value="&lt;div&gt;repository&lt;/div&gt;" style="rounded=1;whiteSpace=wrap;html=1;verticalAlign=middle;" parent="1" vertex="1">
          <mxGeometry x="260" y="220" width="240" height="70" as="geometry" />
        </mxCell>
        <mxCell id="wYL23PpMjLghD0bWI5in-6" value="database" style="rounded=1;whiteSpace=wrap;html=1;" parent="1" vertex="1">
          <mxGeometry x="320" y="360" width="120" height="60" as="geometry" />
        </mxCell>
        <mxCell id="wYL23PpMjLghD0bWI5in-11" style="edgeStyle=orthogonalEdgeStyle;rounded=0;orthogonalLoop=1;jettySize=auto;html=1;entryX=0.5;entryY=0;entryDx=0;entryDy=0;startArrow=none;startFill=0;endArrow=classic;endFill=1;" parent="1" source="wYL23PpMjLghD0bWI5in-9" target="wYL23PpMjLghD0bWI5in-10" edge="1">
          <mxGeometry relative="1" as="geometry" />
        </mxCell>
        <mxCell id="wYL23PpMjLghD0bWI5in-12" style="edgeStyle=orthogonalEdgeStyle;rounded=0;orthogonalLoop=1;jettySize=auto;html=1;entryX=0.25;entryY=0;entryDx=0;entryDy=0;startArrow=none;startFill=0;endArrow=classic;endFill=1;" parent="1" source="wYL23PpMjLghD0bWI5in-9" target="wYL23PpMjLghD0bWI5in-6" edge="1">
          <mxGeometry relative="1" as="geometry" />
        </mxCell>
        <mxCell id="wYL23PpMjLghD0bWI5in-9" value="sync" style="rounded=1;whiteSpace=wrap;html=1;" parent="1" vertex="1">
          <mxGeometry x="240" y="270" width="100" height="30" as="geometry" />
        </mxCell>
        <mxCell id="wYL23PpMjLghD0bWI5in-10" value="remote" style="rounded=1;whiteSpace=wrap;html=1;" parent="1" vertex="1">
          <mxGeometry x="170" y="360" width="120" height="60" as="geometry" />
        </mxCell>
        <mxCell id="E2zEyNJni2xc371JtmK6-2" style="edgeStyle=orthogonalEdgeStyle;rounded=0;orthogonalLoop=1;jettySize=auto;html=1;entryX=0.5;entryY=1;entryDx=0;entryDy=0;endArrow=none;endFill=0;startArrow=classic;startFill=1;" edge="1" parent="1" source="E2zEyNJni2xc371JtmK6-1" target="wYL23PpMjLghD0bWI5in-10">
          <mxGeometry relative="1" as="geometry">
            <Array as="points">
              <mxPoint x="230" y="470" />
              <mxPoint x="230" y="470" />
            </Array>
          </mxGeometry>
        </mxCell>
        <mxCell id="E2zEyNJni2xc371JtmK6-3" style="edgeStyle=orthogonalEdgeStyle;rounded=0;orthogonalLoop=1;jettySize=auto;html=1;entryX=0.5;entryY=1;entryDx=0;entryDy=0;endArrow=none;endFill=0;startArrow=classic;startFill=1;" edge="1" parent="1" source="E2zEyNJni2xc371JtmK6-1" target="wYL23PpMjLghD0bWI5in-6">
          <mxGeometry relative="1" as="geometry">
            <Array as="points">
              <mxPoint x="380" y="470" />
              <mxPoint x="380" y="470" />
            </Array>
          </mxGeometry>
        </mxCell>
        <mxCell id="E2zEyNJni2xc371JtmK6-17" style="edgeStyle=orthogonalEdgeStyle;rounded=0;orthogonalLoop=1;jettySize=auto;html=1;entryX=0.75;entryY=1;entryDx=0;entryDy=0;endArrow=none;endFill=0;startArrow=classic;startFill=1;" edge="1" parent="1" source="E2zEyNJni2xc371JtmK6-1" target="wYL23PpMjLghD0bWI5in-1">
          <mxGeometry relative="1" as="geometry">
            <Array as="points">
              <mxPoint x="520" y="410" />
              <mxPoint x="520" y="410" />
            </Array>
          </mxGeometry>
        </mxCell>
        <mxCell id="E2zEyNJni2xc371JtmK6-1" value="shared" style="rounded=1;whiteSpace=wrap;html=1;" vertex="1" parent="1">
          <mxGeometry x="170" y="480" width="470" height="60" as="geometry" />
        </mxCell>
        <mxCell id="E2zEyNJni2xc371JtmK6-6" style="edgeStyle=orthogonalEdgeStyle;rounded=0;orthogonalLoop=1;jettySize=auto;html=1;entryX=0.832;entryY=1.014;entryDx=0;entryDy=0;entryPerimeter=0;endArrow=none;endFill=0;startArrow=classic;startFill=1;" edge="1" parent="1" source="E2zEyNJni2xc371JtmK6-1" target="wYL23PpMjLghD0bWI5in-4">
          <mxGeometry relative="1" as="geometry">
            <Array as="points">
              <mxPoint x="460" y="430" />
              <mxPoint x="460" y="430" />
            </Array>
          </mxGeometry>
        </mxCell>
        <mxCell id="E2zEyNJni2xc371JtmK6-10" style="edgeStyle=orthogonalEdgeStyle;rounded=0;orthogonalLoop=1;jettySize=auto;html=1;entryX=0.5;entryY=1;entryDx=0;entryDy=0;endArrow=none;endFill=0;startArrow=classic;startFill=1;" edge="1" parent="1" source="E2zEyNJni2xc371JtmK6-7" target="E2zEyNJni2xc371JtmK6-8">
          <mxGeometry relative="1" as="geometry" />
        </mxCell>
        <mxCell id="E2zEyNJni2xc371JtmK6-11" style="edgeStyle=orthogonalEdgeStyle;rounded=0;orthogonalLoop=1;jettySize=auto;html=1;entryX=0.5;entryY=1;entryDx=0;entryDy=0;endArrow=none;endFill=0;startArrow=classic;startFill=1;" edge="1" parent="1" source="E2zEyNJni2xc371JtmK6-7" target="E2zEyNJni2xc371JtmK6-9">
          <mxGeometry relative="1" as="geometry" />
        </mxCell>
        <mxCell id="E2zEyNJni2xc371JtmK6-7" value="business model" style="ellipse;whiteSpace=wrap;html=1;" vertex="1" parent="1">
          <mxGeometry x="254" y="470" width="100" height="30" as="geometry" />
        </mxCell>
        <mxCell id="E2zEyNJni2xc371JtmK6-8" value="dto" style="ellipse;whiteSpace=wrap;html=1;" vertex="1" parent="1">
          <mxGeometry x="240" y="400" width="60" height="30" as="geometry" />
        </mxCell>
        <mxCell id="E2zEyNJni2xc371JtmK6-9" value="entity" style="ellipse;whiteSpace=wrap;html=1;" vertex="1" parent="1">
          <mxGeometry x="310" y="400" width="60" height="30" as="geometry" />
        </mxCell>
        <mxCell id="E2zEyNJni2xc371JtmK6-12" value="feature:import" style="rounded=1;whiteSpace=wrap;html=1;" vertex="1" parent="1">
          <mxGeometry x="350" y="-25" width="100" height="30" as="geometry" />
        </mxCell>
        <mxCell id="E2zEyNJni2xc371JtmK6-13" value="feature:board" style="rounded=1;whiteSpace=wrap;html=1;" vertex="1" parent="1">
          <mxGeometry x="350" y="15" width="100" height="30" as="geometry" />
        </mxCell>
        <mxCell id="E2zEyNJni2xc371JtmK6-14" value="feature:card" style="rounded=1;whiteSpace=wrap;html=1;" vertex="1" parent="1">
          <mxGeometry x="350" y="55" width="100" height="30" as="geometry" />
        </mxCell>
        <mxCell id="E2zEyNJni2xc371JtmK6-15" value="feature:widgets" style="rounded=1;whiteSpace=wrap;html=1;" vertex="1" parent="1">
          <mxGeometry x="350" y="95" width="100" height="30" as="geometry" />
        </mxCell>
        <mxCell id="E2zEyNJni2xc371JtmK6-16" value="feature:about" style="rounded=1;whiteSpace=wrap;html=1;" vertex="1" parent="1">
          <mxGeometry x="350" y="135" width="100" height="30" as="geometry" />
        </mxCell>
        <mxCell id="E2zEyNJni2xc371JtmK6-18" value="" style="endArrow=none;dashed=1;html=1;dashPattern=1 3;strokeWidth=2;rounded=0;" edge="1" parent="1">
          <mxGeometry width="50" height="50" relative="1" as="geometry">
            <mxPoint x="149" y="200" as="sourcePoint" />
            <mxPoint x="679" y="200" as="targetPoint" />
          </mxGeometry>
        </mxCell>
        <mxCell id="E2zEyNJni2xc371JtmK6-19" value="" style="endArrow=none;dashed=1;html=1;dashPattern=1 3;strokeWidth=2;rounded=0;" edge="1" parent="1">
          <mxGeometry width="50" height="50" relative="1" as="geometry">
            <mxPoint x="149" y="320" as="sourcePoint" />
            <mxPoint x="679" y="320" as="targetPoint" />
          </mxGeometry>
        </mxCell>
        <mxCell id="E2zEyNJni2xc371JtmK6-20" value="" style="endArrow=none;dashed=1;html=1;dashPattern=1 3;strokeWidth=2;rounded=0;" edge="1" parent="1">
          <mxGeometry width="50" height="50" relative="1" as="geometry">
            <mxPoint x="149" y="460" as="sourcePoint" />
            <mxPoint x="679" y="460" as="targetPoint" />
          </mxGeometry>
        </mxCell>
      </root>
    </mxGraphModel>
  </diagram>
</mxfile>
